<svg xmlns="http://www.w3.org/2000/svg" width="15" height="10" viewBox="0 0 15 10" fill="none">
<path fill-rule="evenodd" clip-rule="evenodd" d="M14.256 0.244203C14.4122 0.400476 14.5 0.612399 14.5 0.833369C14.5 1.05434 14.4122 1.26626 14.256 1.42254L7.10098 8.57754C6.63216 9.04622 5.99639 9.30951 5.33348 9.30951C4.67057 9.30951 4.0348 9.04622 3.56598 8.57754L0.577649 5.5892C0.498057 5.51233 0.434572 5.42038 0.390898 5.31871C0.347224 5.21704 0.324235 5.10769 0.323274 4.99704C0.322312 4.88639 0.343397 4.77666 0.385297 4.67424C0.427198 4.57183 0.489076 4.47879 0.56732 4.40054C0.645564 4.3223 0.738607 4.26042 0.841021 4.21852C0.943434 4.17662 1.05317 4.15553 1.16382 4.15649C1.27447 4.15746 1.38382 4.18044 1.48549 4.22412C1.58716 4.26779 1.67911 4.33128 1.75598 4.41087L4.74432 7.3992C4.90059 7.55543 5.11251 7.64319 5.33348 7.64319C5.55445 7.64319 5.76638 7.55543 5.92265 7.3992L13.0776 0.244203C13.2339 0.0879766 13.4458 0.000213623 13.6668 0.000213623C13.8878 0.000213623 14.0997 0.0879766 14.256 0.244203Z" fill="#425DF9"/>
</svg>